<svg width="115" height="75" viewBox="0 0 115 75" fill="none" xmlns="http://www.w3.org/2000/svg">
<g id="Logo">
<g id="Group">
<g id="Capa_2">
<path id="Vector" d="M25.0634 52.4126H114.272C114.272 52.4126 116.459 55.6156 113.252 57.945H24.1888C24.1888 57.945 22.0023 55.1788 25.0634 52.4126Z" fill="#03CDA9"/>
<path id="Vector_2" d="M73.3606 7.42496H79.1913C79.1913 7.42496 79.1913 5.48367 81.232 3.9308C81.232 3.9308 82.8841 3.14986 81.232 1.5044C81.232 1.5044 77.6365 -2.18398 72.3889 1.98979C72.3889 1.98979 71.3202 2.57215 72.3889 4.12502C72.3889 4.12502 73.9361 6.26024 73.3606 7.42496Z" fill="#03CDA9"/>
<path id="Vector_3" d="M60.5329 57.945L58.0062 62.4583L50.3534 61.4028C50.3534 61.4028 47.3166 60.5292 45.4703 63.1498L43.5266 68.3789C43.5266 68.3789 42.9436 70.8055 45.5674 71.6791C45.5674 71.6791 47.8025 72.3587 48.9687 70.2232L49.9403 67.3114L59.5732 68.4639C59.5732 68.4639 60.2428 68.2633 60.6308 67.9814L61.7171 66.7878L62.3899 65.9088L63.5456 64.3993L67.627 57.9447H70.3937L74.1378 63.5258V72.1639C74.1378 72.1639 74.915 74.6823 77.0531 74.6823C79.1912 74.6823 83.6613 74.6823 83.6613 74.6823C83.6613 74.6823 88.0346 70.9019 82.9812 68.6697L80.26 68.4758L79.8714 63.5258C79.8714 63.5258 80.1632 61.9729 78.8997 60.9051L77.442 57.9447" fill="#03CDA9"/>
<path id="Vector_4" d="M25.8409 50.6168C25.8409 50.6168 28.5487 33.049 43.4719 21.0134C43.4719 21.0134 53.7015 11.2102 69.216 8.97805C69.216 8.97805 81.9122 6.74557 92.3103 11.5987C92.3103 11.5987 106.207 17.0341 111.746 31.6901C111.746 31.6901 115.439 39.7462 114.37 50.6168H109.414C109.414 50.6168 111.163 34.5049 100.668 23.7313C100.668 23.7313 93.5843 15.384 81.9664 14.0254C81.9664 14.0254 95.0312 17.6165 101.445 29.0698C101.445 29.0698 106.692 36.1551 105.429 50.6171L25.8409 50.6168Z" fill="#03CDA9"/>
<path id="Vector_5" d="M9.51417 32.4667H28.6582C28.6582 32.4667 30.1159 31.7874 30.1159 30.3315C30.1159 30.3315 30.3838 29.1181 28.4888 28.5358H9.24771C9.24771 28.5358 8.08158 29.1181 7.79004 29.8461C7.49851 30.574 7.81308 32.4667 9.51417 32.4667Z" fill="#03CDA9"/>
<path id="Vector_6" d="M5.22629 39.6006H24.3703C24.3703 39.6006 25.828 38.921 25.828 37.4651C25.828 37.4651 26.0959 36.252 24.201 35.6697H4.95983C4.95983 35.6697 3.7937 36.252 3.50217 36.98C3.21064 37.7079 3.52491 39.6006 5.22629 39.6006Z" fill="#03CDA9"/>
<path id="Vector_7" d="M1.82038 47.4625H20.9644C20.9644 47.4625 22.4221 46.7829 22.4221 45.327C22.4221 45.327 22.69 44.114 20.795 43.5316H1.55392C1.55392 43.5316 0.38779 44.114 0.0962577 44.8419C-0.195275 45.5699 0.119288 47.4625 1.82038 47.4625Z" fill="#03CDA9"/>
</g>
</g>
</g>
</svg>
