<svg width="64" height="64" viewBox="0 0 64 64" fill="none" xmlns="http://www.w3.org/2000/svg">
<g id="trash-bin-trash-svgrepo-com (1) 1">
<g id="SVGRepo_iconCarrier">
<path id="Vector" fill-rule="evenodd" clip-rule="evenodd" d="M27.4917 6.00005H36.5088C37.0858 5.99968 37.5885 5.99936 38.0632 6.07517C39.9386 6.37464 41.5616 7.5444 42.4389 9.2289C42.6608 9.65528 42.8195 10.1323 43.0016 10.6798L43.2994 11.5729C43.3498 11.7241 43.3642 11.7669 43.3762 11.8006C43.8434 13.0915 45.0541 13.9642 46.4264 13.999C46.4627 13.9999 46.5066 14.0001 46.6669 14.0001H54.6669C55.7714 14.0001 56.6669 14.8955 56.6669 16.0001C56.6669 17.1047 55.7714 18.0001 54.6669 18.0001H9.33331C8.22875 18.0001 7.33331 17.1047 7.33331 16.0001C7.33331 14.8955 8.22875 14.0001 9.33331 14.0001H17.3335C17.4937 14.0001 17.5378 13.9999 17.5739 13.999C18.9463 13.9642 20.1571 13.0916 20.624 11.8006C20.6363 11.7667 20.6504 11.7248 20.7011 11.5729L20.9987 10.6799C21.1808 10.1324 21.3395 9.65528 21.5616 9.2289C22.4387 7.5444 24.0617 6.37464 25.9371 6.07517C26.4118 5.99936 26.9146 5.99968 27.4917 6.00005ZM24.0217 14.0001C24.1591 13.7307 24.2808 13.4508 24.3855 13.1613C24.4173 13.0734 24.4485 12.9798 24.4886 12.8596L24.7547 12.0611C24.9978 11.3318 25.0538 11.183 25.1093 11.0764C25.4017 10.5149 25.9427 10.125 26.5679 10.0251C26.6866 10.0062 26.8453 10.0001 27.6141 10.0001H36.3861C37.1549 10.0001 37.3138 10.0062 37.4325 10.0251C38.0576 10.125 38.5986 10.5149 38.8912 11.0764C38.9466 11.183 39.0026 11.3317 39.2456 12.0611L39.5117 12.8591L39.6149 13.1613C39.7197 13.4508 39.8413 13.7307 39.9786 14.0001H24.0217Z" fill="#7E7E7E"/>
<path id="Vector_2" d="M15.7735 22.5338C15.7001 21.4317 14.7471 20.5978 13.6449 20.6713C12.5428 20.7447 11.7089 21.6977 11.7824 22.7999L13.0183 41.3379C13.2463 44.7585 13.4304 47.5214 13.8623 49.6897C14.3114 51.9438 15.0752 53.8267 16.6528 55.3027C18.2304 56.7785 20.1598 57.4155 22.4389 57.7134C24.631 58.0003 27.4 58.0003 30.8282 58.0001H33.172C36.6002 58.0003 39.3693 58.0003 41.5616 57.7134C43.8405 57.4155 45.7701 56.7785 47.3477 55.3027C48.9253 53.8267 49.689 51.9438 50.1381 49.6897C50.5701 47.5217 50.7541 44.7585 50.9821 41.3379L52.2181 22.7999C52.2914 21.6977 51.4576 20.7447 50.3554 20.6713C49.2533 20.5978 48.3002 21.4317 48.2269 22.5338L47.0002 40.9315C46.7608 44.5257 46.5901 47.0265 46.2152 48.9083C45.8514 50.7334 45.344 51.6995 44.6149 52.3817C43.8858 53.0638 42.888 53.5059 41.0426 53.7473C39.1402 53.9961 36.6336 54.0001 33.0314 54.0001H30.969C27.3669 54.0001 24.8601 53.9961 22.9577 53.7473C21.1124 53.5059 20.1146 53.0638 19.3855 52.3817C18.6564 51.6995 18.1489 50.7334 17.7853 48.9083C17.4104 47.0265 17.2397 44.5257 17.0001 40.9315L15.7735 22.5338Z" fill="#7E7E7E"/>
<path id="Vector_3" d="M25.1345 27.3434C26.2336 27.2332 27.2138 28.0354 27.3237 29.1343L28.657 42.4676C28.7669 43.5668 27.965 44.5468 26.8658 44.6567C25.7668 44.7666 24.7867 43.9647 24.6768 42.8658L23.3434 29.5324C23.2336 28.4332 24.0354 27.4532 25.1345 27.3434Z" fill="#7E7E7E"/>
<path id="Vector_4" d="M38.8658 27.3434C39.965 27.4532 40.7669 28.4332 40.657 29.5324L39.3237 42.8658C39.2138 43.9647 38.2336 44.7666 37.1346 44.6567C36.0354 44.5468 35.2336 43.5668 35.3434 42.4676L36.6768 29.1343C36.7866 28.0354 37.7669 27.2332 38.8658 27.3434Z" fill="#7E7E7E"/>
</g>
</g>
</svg>
